<svg width="191" height="76" viewBox="0 0 191 76" fill="none" xmlns="http://www.w3.org/2000/svg">
<rect x="8" y="8" width="175" height="60" rx="10" fill="url(#paint0_linear_2_1231)"/>
<path d="M39.3664 32.4432C39.584 32.5584 39.7056 32.7312 39.7312 32.9616C39.7696 33.192 39.712 33.4032 39.5584 33.5952C39.4432 33.7616 39.296 33.8512 39.1168 33.864C38.9376 33.8768 38.7584 33.8384 38.5792 33.7488C38.1568 33.4928 37.7024 33.2944 37.216 33.1536C36.7296 33 36.2176 32.9232 35.68 32.9232C34.9248 32.9232 34.2336 33.0576 33.6064 33.3264C32.9792 33.5824 32.4352 33.9472 31.9744 34.4208C31.5136 34.8944 31.1552 35.4576 30.8992 36.1104C30.6432 36.7632 30.5152 37.4864 30.5152 38.28C30.5152 39.1248 30.6496 39.88 30.9184 40.5456C31.1872 41.2112 31.552 41.7808 32.0128 42.2544C32.4864 42.7152 33.0304 43.0672 33.6448 43.3104C34.272 43.5536 34.9504 43.6752 35.68 43.6752C36.2048 43.6752 36.7104 43.6048 37.1968 43.464C37.6832 43.3232 38.144 43.1184 38.5792 42.8496C38.7584 42.76 38.9376 42.728 39.1168 42.7536C39.296 42.7792 39.4496 42.8688 39.5776 43.0224C39.7312 43.2272 39.7888 43.4448 39.7504 43.6752C39.712 43.8928 39.5904 44.0528 39.3856 44.1552C39.0656 44.3472 38.7008 44.5264 38.2912 44.6928C37.8816 44.8464 37.4528 44.968 37.0048 45.0576C36.5696 45.1472 36.128 45.192 35.68 45.192C34.7584 45.192 33.888 45.032 33.0688 44.712C32.2496 44.392 31.5264 43.9312 30.8992 43.3296C30.272 42.728 29.7728 42.0048 29.4016 41.16C29.0432 40.3024 28.864 39.3424 28.864 38.28C28.864 37.2816 29.0368 36.3664 29.3824 35.5344C29.728 34.7024 30.208 33.9792 30.8224 33.3648C31.4496 32.7504 32.1728 32.2704 32.992 31.9248C33.824 31.5792 34.72 31.4064 35.68 31.4064C36.3456 31.4064 36.992 31.496 37.6192 31.6752C38.2592 31.8544 38.8416 32.1104 39.3664 32.4432ZM51.319 40.008C51.319 41.0064 51.095 41.896 50.647 42.6768C50.2118 43.4576 49.6166 44.072 48.8614 44.52C48.119 44.968 47.2806 45.192 46.3462 45.192C45.4118 45.192 44.567 44.968 43.8118 44.52C43.0566 44.072 42.455 43.4576 42.007 42.6768C41.5718 41.896 41.3542 41.0064 41.3542 40.008C41.3542 39.0096 41.5718 38.12 42.007 37.3392C42.455 36.5584 43.0566 35.944 43.8118 35.496C44.567 35.048 45.4118 34.824 46.3462 34.824C47.2806 34.824 48.119 35.048 48.8614 35.496C49.6166 35.944 50.2118 36.5584 50.647 37.3392C51.095 38.12 51.319 39.0096 51.319 40.008ZM49.783 40.008C49.783 39.2656 49.6294 38.6128 49.3222 38.0496C49.0278 37.4864 48.6182 37.0448 48.0934 36.7248C47.5814 36.4048 46.999 36.2448 46.3462 36.2448C45.6934 36.2448 45.1046 36.4048 44.5798 36.7248C44.0678 37.0448 43.6582 37.4864 43.351 38.0496C43.0438 38.6128 42.8902 39.2656 42.8902 40.008C42.8902 40.7376 43.0438 41.384 43.351 41.9472C43.6582 42.5104 44.0678 42.9584 44.5798 43.2912C45.1046 43.6112 45.6934 43.7712 46.3462 43.7712C46.999 43.7712 47.5814 43.6112 48.0934 43.2912C48.6182 42.9584 49.0278 42.5104 49.3222 41.9472C49.6294 41.384 49.783 40.7376 49.783 40.008ZM58.6597 34.824C59.5301 34.824 60.2149 35.0032 60.7141 35.3616C61.2133 35.72 61.5653 36.2 61.7701 36.8016C61.9877 37.4032 62.0965 38.0752 62.0965 38.8176V44.2128C62.0965 44.4304 62.0197 44.616 61.8661 44.7696C61.7253 44.9232 61.5461 45 61.3285 45C61.1109 45 60.9253 44.9232 60.7717 44.7696C60.6309 44.616 60.5605 44.4304 60.5605 44.2128V38.856C60.5605 38.3696 60.4837 37.9344 60.3301 37.5504C60.1893 37.1536 59.9461 36.84 59.6005 36.6096C59.2677 36.3664 58.8069 36.2448 58.2181 36.2448C57.6805 36.2448 57.1877 36.3664 56.7397 36.6096C56.2917 36.84 55.9333 37.1536 55.6645 37.5504C55.3957 37.9344 55.2613 38.3696 55.2613 38.856V44.2128C55.2613 44.4304 55.1845 44.616 55.0309 44.7696C54.8901 44.9232 54.7109 45 54.4933 45C54.2757 45 54.0901 44.9232 53.9365 44.7696C53.7957 44.616 53.7253 44.4304 53.7253 44.2128V35.8416C53.7253 35.624 53.7957 35.4448 53.9365 35.304C54.0901 35.1504 54.2757 35.0736 54.4933 35.0736C54.7237 35.0736 54.9093 35.1504 55.0501 35.304C55.1909 35.4448 55.2613 35.624 55.2613 35.8416V37.2048L54.8773 37.6272C54.9413 37.2944 55.0885 36.9616 55.3189 36.6288C55.5493 36.2832 55.8373 35.976 56.1829 35.7072C56.5285 35.4384 56.9125 35.2272 57.3349 35.0736C57.7573 34.9072 58.1989 34.824 58.6597 34.824ZM69.9682 34.824C70.8386 34.824 71.5234 35.0032 72.0226 35.3616C72.5218 35.72 72.8738 36.2 73.0786 36.8016C73.2962 37.4032 73.405 38.0752 73.405 38.8176V44.2128C73.405 44.4304 73.3282 44.616 73.1746 44.7696C73.0338 44.9232 72.8546 45 72.637 45C72.4194 45 72.2338 44.9232 72.0802 44.7696C71.9394 44.616 71.869 44.4304 71.869 44.2128V38.856C71.869 38.3696 71.7922 37.9344 71.6386 37.5504C71.4978 37.1536 71.2546 36.84 70.909 36.6096C70.5762 36.3664 70.1154 36.2448 69.5266 36.2448C68.989 36.2448 68.4962 36.3664 68.0482 36.6096C67.6002 36.84 67.2418 37.1536 66.973 37.5504C66.7042 37.9344 66.5698 38.3696 66.5698 38.856V44.2128C66.5698 44.4304 66.493 44.616 66.3394 44.7696C66.1986 44.9232 66.0194 45 65.8018 45C65.5842 45 65.3986 44.9232 65.245 44.7696C65.1042 44.616 65.0338 44.4304 65.0338 44.2128V35.8416C65.0338 35.624 65.1042 35.4448 65.245 35.304C65.3986 35.1504 65.5842 35.0736 65.8018 35.0736C66.0322 35.0736 66.2178 35.1504 66.3586 35.304C66.4994 35.4448 66.5698 35.624 66.5698 35.8416V37.2048L66.1858 37.6272C66.2498 37.2944 66.397 36.9616 66.6274 36.6288C66.8578 36.2832 67.1458 35.976 67.4914 35.7072C67.837 35.4384 68.221 35.2272 68.6434 35.0736C69.0658 34.9072 69.5074 34.824 69.9682 34.824ZM80.9311 45.192C79.9071 45.192 79.0111 44.9744 78.2431 44.5392C77.4751 44.104 76.8735 43.5088 76.4383 42.7536C76.0159 41.9856 75.8047 41.1024 75.8047 40.104C75.8047 38.9904 76.0223 38.0432 76.4575 37.2624C76.9055 36.4688 77.4815 35.8672 78.1855 35.4576C78.9023 35.0352 79.6575 34.824 80.4511 34.824C81.0399 34.824 81.6095 34.9328 82.1599 35.1504C82.7103 35.368 83.1967 35.688 83.6191 36.1104C84.0415 36.52 84.3807 37.0192 84.6367 37.608C84.8927 38.184 85.0271 38.8304 85.0399 39.5472C85.0399 39.752 84.9631 39.9248 84.8095 40.0656C84.6559 40.2064 84.4767 40.2768 84.2719 40.2768H76.6879L76.3423 38.952H83.7343L83.4271 39.2208V38.7984C83.3759 38.2736 83.1967 37.8256 82.8895 37.4544C82.5951 37.0704 82.2303 36.776 81.7951 36.5712C81.3727 36.3664 80.9247 36.264 80.4511 36.264C80.0671 36.264 79.6831 36.3344 79.2991 36.4752C78.9279 36.6032 78.5887 36.8208 78.2815 37.128C77.9871 37.4224 77.7439 37.8064 77.5519 38.28C77.3727 38.7536 77.2831 39.3232 77.2831 39.9888C77.2831 40.7312 77.4303 41.384 77.7247 41.9472C78.0319 42.5104 78.4543 42.9584 78.9919 43.2912C79.5295 43.6112 80.1567 43.7712 80.8735 43.7712C81.3215 43.7712 81.7119 43.7136 82.0447 43.5984C82.3775 43.4832 82.6655 43.3424 82.9087 43.176C83.1519 42.9968 83.3567 42.8176 83.5231 42.6384C83.6895 42.5232 83.8495 42.4656 84.0031 42.4656C84.1951 42.4656 84.3487 42.5296 84.4639 42.6576C84.5919 42.7856 84.6559 42.9392 84.6559 43.1184C84.6559 43.336 84.5535 43.528 84.3487 43.6944C83.9903 44.0912 83.5039 44.4432 82.8895 44.7504C82.2751 45.0448 81.6223 45.192 80.9311 45.192ZM91.8606 34.824C92.5134 34.824 93.1022 34.8944 93.627 35.0352C94.1518 35.176 94.5678 35.368 94.875 35.6112C95.1822 35.8544 95.3358 36.1296 95.3358 36.4368C95.3358 36.6032 95.2782 36.7632 95.163 36.9168C95.0478 37.0704 94.8942 37.1472 94.7022 37.1472C94.523 37.1472 94.3758 37.1152 94.2606 37.0512C94.1582 36.9872 94.0558 36.904 93.9534 36.8016C93.8638 36.6992 93.7358 36.6096 93.5694 36.5328C93.4158 36.4432 93.1918 36.3728 92.8974 36.3216C92.603 36.2704 92.3086 36.2448 92.0142 36.2448C91.3102 36.2448 90.6894 36.4112 90.1518 36.744C89.627 37.0768 89.211 37.5248 88.9038 38.088C88.5966 38.6512 88.443 39.2912 88.443 40.008C88.443 40.7248 88.5902 41.3648 88.8846 41.928C89.179 42.4912 89.5886 42.9392 90.1134 43.272C90.6382 43.6048 91.2462 43.7712 91.9374 43.7712C92.3854 43.7712 92.7438 43.7328 93.0126 43.656C93.2814 43.5792 93.5054 43.4896 93.6846 43.3872C93.915 43.2592 94.0878 43.1312 94.203 43.0032C94.331 42.8752 94.4974 42.8112 94.7022 42.8112C94.9198 42.8112 95.0862 42.8816 95.2014 43.0224C95.3294 43.1632 95.3934 43.336 95.3934 43.5408C95.3934 43.7712 95.2334 44.0144 94.9134 44.2704C94.5934 44.5264 94.1582 44.744 93.6078 44.9232C93.0702 45.1024 92.4558 45.192 91.7646 45.192C90.7918 45.192 89.9406 44.968 89.211 44.52C88.4814 44.0592 87.9118 43.4384 87.5022 42.6576C87.1054 41.864 86.907 40.9808 86.907 40.008C86.907 39.0352 87.1118 38.1584 87.5214 37.3776C87.9438 36.5968 88.5262 35.976 89.2686 35.5152C90.011 35.0544 90.875 34.824 91.8606 34.824ZM97.1128 35.1312H101.625C101.83 35.1312 101.996 35.2016 102.124 35.3424C102.265 35.4832 102.335 35.6496 102.335 35.8416C102.335 36.0464 102.265 36.2192 102.124 36.36C101.996 36.488 101.83 36.552 101.625 36.552H97.1128C96.9208 36.552 96.7544 36.4816 96.6136 36.3408C96.4728 36.2 96.4024 36.0272 96.4024 35.8224C96.4024 35.6304 96.4728 35.4704 96.6136 35.3424C96.7544 35.2016 96.9208 35.1312 97.1128 35.1312ZM99.1288 32.52C99.3464 32.52 99.5256 32.5968 99.6664 32.7504C99.8072 32.8912 99.8776 33.0704 99.8776 33.288V42.5616C99.8776 42.8688 99.9224 43.0992 100.012 43.2528C100.102 43.4064 100.217 43.5152 100.358 43.5792C100.511 43.6304 100.658 43.656 100.799 43.656C100.927 43.656 101.036 43.6368 101.126 43.5984C101.228 43.5472 101.343 43.5216 101.471 43.5216C101.599 43.5216 101.714 43.5856 101.817 43.7136C101.932 43.8288 101.99 43.9824 101.99 44.1744C101.99 44.4048 101.855 44.6032 101.586 44.7696C101.318 44.9232 101.017 45 100.684 45C100.505 45 100.281 44.9872 100.012 44.9616C99.756 44.936 99.5 44.8528 99.244 44.712C98.988 44.5712 98.7704 44.3408 98.5912 44.0208C98.4248 43.688 98.3416 43.2272 98.3416 42.6384V33.288C98.3416 33.0704 98.4184 32.8912 98.572 32.7504C98.7256 32.5968 98.9112 32.52 99.1288 32.52ZM121.663 34.9008C121.868 34.9008 122.041 34.9712 122.182 35.112C122.335 35.2528 122.412 35.4384 122.412 35.6688C122.412 35.72 122.406 35.7776 122.393 35.8416C122.393 35.8928 122.38 35.944 122.355 35.9952L119.398 44.5008C119.334 44.6672 119.225 44.7952 119.071 44.8848C118.931 44.9744 118.777 45.0128 118.611 45C118.316 44.9872 118.092 44.8208 117.939 44.5008L115.519 38.4336L115.903 38.4912L113.715 44.5008C113.574 44.8208 113.35 44.9872 113.043 45C112.876 45.0128 112.716 44.9744 112.563 44.8848C112.409 44.7952 112.307 44.6672 112.255 44.5008L109.241 35.9952C109.203 35.88 109.183 35.7712 109.183 35.6688C109.183 35.464 109.254 35.2848 109.395 35.1312C109.535 34.9776 109.727 34.9008 109.971 34.9008C110.124 34.9008 110.265 34.9392 110.393 35.016C110.521 35.0928 110.611 35.2144 110.662 35.3808L113.254 42.9456L112.851 42.9264L115.097 37.1664C115.225 36.8464 115.462 36.6864 115.807 36.6864C115.987 36.6864 116.127 36.7312 116.23 36.8208C116.345 36.8976 116.428 37.0128 116.479 37.1664L118.822 42.9264L118.342 42.9648L120.934 35.3808C121.049 35.0608 121.292 34.9008 121.663 34.9008ZM132.833 34.9776C133.05 34.9776 133.23 35.0544 133.37 35.208C133.524 35.3488 133.601 35.528 133.601 35.7456V44.2128C133.601 44.4304 133.524 44.616 133.37 44.7696C133.23 44.9232 133.05 45 132.833 45C132.602 45 132.417 44.9232 132.276 44.7696C132.135 44.616 132.065 44.4304 132.065 44.2128V42.3888L132.43 42.3504C132.43 42.632 132.334 42.9392 132.142 43.272C131.95 43.6048 131.687 43.9184 131.354 44.2128C131.022 44.4944 130.625 44.7312 130.164 44.9232C129.716 45.1024 129.23 45.192 128.705 45.192C127.834 45.192 127.054 44.968 126.362 44.52C125.671 44.0592 125.121 43.4384 124.711 42.6576C124.314 41.8768 124.116 40.9872 124.116 39.9888C124.116 38.9776 124.314 38.088 124.711 37.32C125.121 36.5392 125.671 35.9312 126.362 35.496C127.054 35.048 127.822 34.824 128.666 34.824C129.217 34.824 129.729 34.9136 130.202 35.0928C130.676 35.272 131.086 35.5152 131.431 35.8224C131.79 36.1296 132.065 36.4688 132.257 36.84C132.462 37.2112 132.564 37.5824 132.564 37.9536L132.065 37.8384V35.7456C132.065 35.528 132.135 35.3488 132.276 35.208C132.417 35.0544 132.602 34.9776 132.833 34.9776ZM128.878 43.7712C129.518 43.7712 130.081 43.6048 130.567 43.272C131.066 42.9392 131.45 42.4912 131.719 41.928C132.001 41.352 132.142 40.7056 132.142 39.9888C132.142 39.2848 132.001 38.6512 131.719 38.088C131.45 37.512 131.066 37.064 130.567 36.744C130.081 36.4112 129.518 36.2448 128.878 36.2448C128.25 36.2448 127.687 36.4048 127.188 36.7248C126.702 37.0448 126.318 37.4864 126.036 38.0496C125.754 38.6128 125.614 39.2592 125.614 39.9888C125.614 40.7056 125.748 41.352 126.017 41.928C126.298 42.4912 126.682 42.9392 127.169 43.272C127.668 43.6048 128.238 43.7712 128.878 43.7712ZM138.233 44.2128C138.233 44.4304 138.156 44.616 138.003 44.7696C137.849 44.9232 137.663 45 137.446 45C137.228 45 137.049 44.9232 136.908 44.7696C136.767 44.616 136.697 44.4304 136.697 44.2128V31.56C136.697 31.3424 136.767 31.1632 136.908 31.0224C137.062 30.8688 137.247 30.792 137.465 30.792C137.695 30.792 137.881 30.8688 138.022 31.0224C138.163 31.1632 138.233 31.3424 138.233 31.56V44.2128ZM142.998 44.2128C142.998 44.4304 142.921 44.616 142.767 44.7696C142.614 44.9232 142.428 45 142.21 45C141.993 45 141.814 44.9232 141.673 44.7696C141.532 44.616 141.462 44.4304 141.462 44.2128V31.56C141.462 31.3424 141.532 31.1632 141.673 31.0224C141.826 30.8688 142.012 30.792 142.23 30.792C142.46 30.792 142.646 30.8688 142.786 31.0224C142.927 31.1632 142.998 31.3424 142.998 31.56V44.2128ZM150.474 45.192C149.45 45.192 148.554 44.9744 147.786 44.5392C147.018 44.104 146.417 43.5088 145.981 42.7536C145.559 41.9856 145.348 41.1024 145.348 40.104C145.348 38.9904 145.565 38.0432 146.001 37.2624C146.449 36.4688 147.025 35.8672 147.729 35.4576C148.445 35.0352 149.201 34.824 149.994 34.824C150.583 34.824 151.153 34.9328 151.703 35.1504C152.253 35.368 152.74 35.688 153.162 36.1104C153.585 36.52 153.924 37.0192 154.18 37.608C154.436 38.184 154.57 38.8304 154.583 39.5472C154.583 39.752 154.506 39.9248 154.353 40.0656C154.199 40.2064 154.02 40.2768 153.815 40.2768H146.231L145.885 38.952H153.277L152.97 39.2208V38.7984C152.919 38.2736 152.74 37.8256 152.433 37.4544C152.138 37.0704 151.773 36.776 151.338 36.5712C150.916 36.3664 150.468 36.264 149.994 36.264C149.61 36.264 149.226 36.3344 148.842 36.4752C148.471 36.6032 148.132 36.8208 147.825 37.128C147.53 37.4224 147.287 37.8064 147.095 38.28C146.916 38.7536 146.826 39.3232 146.826 39.9888C146.826 40.7312 146.973 41.384 147.268 41.9472C147.575 42.5104 147.997 42.9584 148.535 43.2912C149.073 43.6112 149.7 43.7712 150.417 43.7712C150.865 43.7712 151.255 43.7136 151.588 43.5984C151.921 43.4832 152.209 43.3424 152.452 43.176C152.695 42.9968 152.9 42.8176 153.066 42.6384C153.233 42.5232 153.393 42.4656 153.546 42.4656C153.738 42.4656 153.892 42.5296 154.007 42.6576C154.135 42.7856 154.199 42.9392 154.199 43.1184C154.199 43.336 154.097 43.528 153.892 43.6944C153.533 44.0912 153.047 44.4432 152.433 44.7504C151.818 45.0448 151.165 45.192 150.474 45.192ZM156.604 35.1312H161.116C161.32 35.1312 161.487 35.2016 161.615 35.3424C161.756 35.4832 161.826 35.6496 161.826 35.8416C161.826 36.0464 161.756 36.2192 161.615 36.36C161.487 36.488 161.32 36.552 161.116 36.552H156.604C156.412 36.552 156.245 36.4816 156.104 36.3408C155.964 36.2 155.893 36.0272 155.893 35.8224C155.893 35.6304 155.964 35.4704 156.104 35.3424C156.245 35.2016 156.412 35.1312 156.604 35.1312ZM158.62 32.52C158.837 32.52 159.016 32.5968 159.157 32.7504C159.298 32.8912 159.368 33.0704 159.368 33.288V42.5616C159.368 42.8688 159.413 43.0992 159.503 43.2528C159.592 43.4064 159.708 43.5152 159.848 43.5792C160.002 43.6304 160.149 43.656 160.29 43.656C160.418 43.656 160.527 43.6368 160.616 43.5984C160.719 43.5472 160.834 43.5216 160.962 43.5216C161.09 43.5216 161.205 43.5856 161.308 43.7136C161.423 43.8288 161.48 43.9824 161.48 44.1744C161.48 44.4048 161.346 44.6032 161.077 44.7696C160.808 44.9232 160.508 45 160.175 45C159.996 45 159.772 44.9872 159.503 44.9616C159.247 44.936 158.991 44.8528 158.735 44.712C158.479 44.5712 158.261 44.3408 158.082 44.0208C157.916 43.688 157.832 43.2272 157.832 42.6384V33.288C157.832 33.0704 157.909 32.8912 158.063 32.7504C158.216 32.5968 158.402 32.52 158.62 32.52Z" fill="#FFFEFD"/>
<defs>
<linearGradient id="paint0_linear_2_1231" x1="-48.25" y1="8" x2="172.391" y2="105.506" gradientUnits="userSpaceOnUse">
<stop stop-color="#FFAC30"/>
<stop offset="1" stop-color="#FD01A7"/>
</linearGradient>
</defs>
</svg>
