<svg width="37" height="36" viewBox="0 0 37 36" fill="none" xmlns="http://www.w3.org/2000/svg">
<path d="M6.16667 27H30.8333C31.6812 27 32.375 26.325 32.375 25.5C32.375 24.675 31.6812 24 30.8333 24H6.16667C5.31875 24 4.625 24.675 4.625 25.5C4.625 26.325 5.31875 27 6.16667 27ZM6.16667 19.5H30.8333C31.6812 19.5 32.375 18.825 32.375 18C32.375 17.175 31.6812 16.5 30.8333 16.5H6.16667C5.31875 16.5 4.625 17.175 4.625 18C4.625 18.825 5.31875 19.5 6.16667 19.5ZM4.625 10.5C4.625 11.325 5.31875 12 6.16667 12H30.8333C31.6812 12 32.375 11.325 32.375 10.5C32.375 9.675 31.6812 9 30.8333 9H6.16667C5.31875 9 4.625 9.675 4.625 10.5Z" fill="white"/>
</svg>
